<?xml version="1.0" encoding="UTF-8"?>
<svg id="Layer_1" xmlns="http://www.w3.org/2000/svg" version="1.1" viewBox="0 0 215.04 78.91">
  <!-- Generator: Adobe Illustrator 29.7.1, SVG Export Plug-In . SVG Version: 2.1.1 Build 8)  -->
  <defs>
    <style>
      .st0 {
        fill: #82c139;
      }

      .st1 {
        fill: #a2d06c;
      }

      .st2 {
        fill: #b7da8c;
      }

      .st3 {
        fill: #94c956;
      }

      .st4 {
        fill: #fff;
      }

      .st5 {
        fill: #76bc21;
      }
    </style>
  </defs>
  <g>
    <g>
      <path class="st5" d="M52.02,67.43c-.8,0-1.59-.2-2.29-.58l-22-11.96c-1.55-.84-2.51-2.46-2.51-4.22v-23.55c0-1.76.96-3.38,2.51-4.22l22-11.96c.7-.38,1.5-.58,2.29-.58s1.59.2,2.29.58l22,11.96c1.55.84,2.51,2.46,2.51,4.22v23.55c0,1.76-.96,3.38-2.51,4.22l-22,11.96c-.7.38-1.5.58-2.29.58Z"/>
      <path class="st4" d="M52.02,11.65c.58,0,1.16.14,1.68.43l22,11.96c1.13.62,1.84,1.8,1.84,3.09v23.55c0,1.29-.71,2.48-1.84,3.09l-22,11.96c-.52.28-1.1.43-1.68.43s-1.16-.14-1.68-.43l-22-11.96c-1.13-.62-1.84-1.8-1.84-3.09v-23.55c0-1.29.71-2.48,1.84-3.09l22-11.96c.52-.28,1.1-.43,1.68-.43M52.02,9.07c-1.01,0-2.02.26-2.91.74l-22,11.96c-1.96,1.07-3.18,3.12-3.18,5.35v23.55c0,2.23,1.22,4.29,3.18,5.35l22,11.96c.89.48,1.9.74,2.91.74s2.02-.26,2.91-.74l22-11.96c1.96-1.07,3.18-3.12,3.18-5.35v-23.55c0-2.23-1.22-4.29-3.18-5.35l-22-11.96c-.89-.48-1.9-.74-2.91-.74h0Z"/>
    </g>
    <g>
      <polygon class="st5" points="52.02 14.44 29.51 26.67 52.02 26.67 52.02 14.44"/>
      <polygon class="st3" points="74.52 26.67 52.02 14.44 52.02 26.67 74.52 26.67"/>
      <polygon class="st3" points="74.52 51.13 52.02 38.9 52.02 51.13 74.52 51.13"/>
      <polygon class="st1" points="52.02 38.9 29.51 51.13 52.02 51.13 52.02 38.9"/>
      <polygon class="st2" points="29.51 26.67 29.51 51.13 52.02 38.9 29.51 26.67"/>
      <polygon class="st2" points="52.02 38.9 74.52 51.13 74.52 26.67 52.02 38.9"/>
      <polygon class="st1" points="52.02 38.9 74.52 26.67 52.02 26.67 52.02 38.9"/>
      <polygon class="st3" points="52.02 26.67 29.51 26.67 52.02 38.9 52.02 26.67"/>
      <polygon class="st3" points="52.02 51.13 29.51 51.13 52.02 63.35 52.02 51.13"/>
      <polygon class="st5" points="52.02 63.35 74.52 51.13 52.02 51.13 52.02 63.35"/>
    </g>
    <g>
      <polygon class="st0" points="52.02 14.44 29.51 26.67 52.02 26.67 52.02 14.44"/>
      <polygon class="st3" points="74.52 26.67 52.02 14.44 52.02 26.67 74.52 26.67"/>
      <polygon class="st3" points="74.52 51.13 52.02 38.9 52.02 51.13 74.52 51.13"/>
      <polygon class="st1" points="52.02 38.9 29.51 51.13 52.02 51.13 52.02 38.9"/>
      <polygon class="st2" points="29.51 26.67 29.51 51.13 52.02 38.9 29.51 26.67"/>
      <polygon class="st2" points="52.02 38.9 74.52 51.13 74.52 26.67 52.02 38.9"/>
      <polygon class="st1" points="52.02 38.9 74.52 26.67 52.02 26.67 52.02 38.9"/>
      <polygon class="st3" points="52.02 26.67 29.51 26.67 52.02 38.9 52.02 26.67"/>
      <polygon class="st3" points="52.02 51.13 29.51 51.13 52.02 63.35 52.02 51.13"/>
      <polygon class="st0" points="52.02 63.35 74.52 51.13 52.02 51.13 52.02 63.35"/>
    </g>
    <g>
      <path class="st4" d="M87.85,28.52h13.39v3.62h-9.19v4.8h7.36v3.56h-7.36v4.92h9.19v3.62h-13.39v-20.54Z"/>
      <path class="st4" d="M103.74,49.06v-15.1h4.05v.85s2.07-1.21,3.8-1.21c4.26,0,5.36,2.66,5.36,7.28v8.19h-4.08v-8.07c0-2.3-.3-3.78-2.28-3.78-1.43,0-2.77.54-2.77.54v11.3h-4.08Z"/>
      <path class="st4" d="M119.2,51.81c0-1.39.67-2.42,2.19-3.59-.67-.45-1.13-1.36-1.13-2.3,0-.76,1.19-2.42,1.19-2.42-1.07-.76-2.07-1.87-2.07-4.5,0-3.9,2.83-5.35,6.39-5.35,1.34,0,3.07.39,3.07.39l4.9-.15v3.23l-2.28-.18c.27.42.67,1.18.67,2.05,0,4.23-2.25,5.32-6.42,5.32-.33,0-.97-.06-1.25-.12,0,0-.3.79-.3,1.18,0,.79.37.97,2.95,1,5.17.03,6.63,1.18,6.63,4.56,0,3.69-3.29,5.07-7.21,5.07-4.44,0-7.33-.82-7.33-4.2ZM124.04,49.66c-.52.51-.82.97-.82,1.72,0,.88,1.06,1.3,3.35,1.3,1.98,0,3.07-.42,3.07-1.51,0-1.15-.61-1.27-2.86-1.3-.85,0-2.74-.21-2.74-.21ZM128.11,39c0-1.42-.67-2.21-2.31-2.21s-2.34.79-2.34,2.21.7,2.24,2.34,2.24,2.31-.82,2.31-2.24Z"/>
      <path class="st4" d="M147.25,44.95c.06.91.18,1.27,1,1.42l-.12,3.05c-2.04,0-3.07-.21-4.35-1.06,0,0-2.19,1.06-4.47,1.06-3.2,0-4.72-1.75-4.72-4.95,0-3.41,1.98-4.38,5.33-4.62l3.26-.24v-.94c0-1.3-.58-1.63-1.8-1.63-2.01,0-5.72.24-5.72.24l-.12-2.81s3.26-.88,6.18-.88c3.96,0,5.54,1.54,5.54,5.07v6.28ZM140.41,42.65c-1.07.09-1.7.6-1.7,1.69s.4,1.78,1.49,1.78c1.31,0,2.98-.48,2.98-.48v-3.23l-2.77.24Z"/>
      <path class="st4" d="M149.78,51.81c0-1.39.67-2.42,2.19-3.59-.67-.45-1.13-1.36-1.13-2.3,0-.76,1.19-2.42,1.19-2.42-1.06-.76-2.07-1.87-2.07-4.5,0-3.9,2.83-5.35,6.39-5.35,1.34,0,3.07.39,3.07.39l4.9-.15v3.23l-2.28-.18c.27.42.67,1.18.67,2.05,0,4.23-2.25,5.32-6.42,5.32-.33,0-.97-.06-1.25-.12,0,0-.3.79-.3,1.18,0,.79.37.97,2.95,1,5.17.03,6.63,1.18,6.63,4.56,0,3.69-3.29,5.07-7.21,5.07-4.44,0-7.33-.82-7.33-4.2ZM154.62,49.66c-.52.51-.82.97-.82,1.72,0,.88,1.07,1.3,3.35,1.3,1.98,0,3.07-.42,3.07-1.51,0-1.15-.61-1.27-2.86-1.3-.85,0-2.74-.21-2.74-.21ZM158.7,39c0-1.42-.67-2.21-2.31-2.21s-2.34.79-2.34,2.21.7,2.24,2.34,2.24,2.31-.82,2.31-2.24Z"/>
      <path class="st4" d="M178.23,45.58l.06,2.99s-3.5.85-6.33.85c-4.6,0-6.54-2.27-6.54-7.7s2.28-8.13,6.73-8.13,6.63,2.27,6.63,6.83l-.3,2.81h-8.95c.03,1.81.88,2.63,3.07,2.63,2.5,0,5.63-.27,5.63-.27ZM174.76,40.15c0-2.45-.7-3.23-2.62-3.23s-2.62.94-2.65,3.23h5.26Z"/>
    </g>
    <polygon class="st2" points="60.46 34.44 64.32 32.34 62.11 32.24 59.35 33.91 60.46 34.44"/>
    <g>
      <path class="st4" d="M35.51,29.93h11.35v3.13h-7.72v4.15h6.15v3.08h-6.15v4.25h7.72v3.33h-11.35v-17.94Z"/>
      <path class="st4" d="M68.8,33.16s-3.71-.42-5.23-.42c-1.94,0-2.86.7-2.86,1.88s.71,1.51,3.71,2.45c3.86,1.23,5.05,2.3,5.05,5.24,0,3.86-2.65,5.66-6.18,5.66-2.44,0-5.97-.81-5.97-.81l.37-2.79s3.52.47,5.39.47,2.79-.91,2.79-2.3c0-1.1-.63-1.59-3.21-2.32-4.02-1.15-5.55-2.5-5.55-5.35,0-3.68,2.47-5.27,6.1-5.27,2.39,0,4.93.53,4.93.53l.67,3.02Z"/>
    </g>
  </g>
  <g>
    <path class="st4" d="M179.2,33.09v-2.82h-1.02v-.65h2.77v.65h-1.01v2.82h-.75Z"/>
    <path class="st4" d="M184.45,33.09v-2.51l-.98,2.51h-.32l-.98-2.51v2.51h-.74v-3.48h1.04l.84,2.17.84-2.17h1.04v3.48h-.75Z"/>
  </g>
</svg>