<?xml version="1.0" encoding="UTF-8"?>
<svg id="Layer_1" xmlns="http://www.w3.org/2000/svg" version="1.1" viewBox="0 0 215.04 78.91">
  <!-- Generator: Adobe Illustrator 29.7.1, SVG Export Plug-In . SVG Version: 2.1.1 Build 8)  -->
  <defs>
    <style>
      .st0 {
        fill: #006387;
      }

      .st1 {
        fill: #a2d06c;
      }

      .st2 {
        fill: #007696;
      }

      .st3 {
        fill: #b7da8c;
      }

      .st4 {
        fill: #00567d;
      }

      .st5 {
        fill: #2e86a2;
      }

      .st6 {
        fill: #fff;
      }

      .st7 {
        fill: #649fb6;
      }

      .st8 {
        fill: #94c956;
      }

      .st9 {
        fill: #82c139;
      }
    </style>
  </defs>
  <g>
    <g>
      <path class="st4" d="M39.28,67.97c-.8,0-1.59-.2-2.29-.58l-21.99-11.95c-1.55-.84-2.51-2.46-2.51-4.22v-23.54c0-1.76.96-3.38,2.51-4.22l21.99-11.95c.7-.38,1.49-.58,2.29-.58s1.59.2,2.29.58l21.99,11.95c1.55.84,2.51,2.46,2.51,4.22v23.54c0,1.76-.96,3.38-2.51,4.22l-21.99,11.95c-.7.38-1.49.58-2.29.58Z"/>
      <path class="st6" d="M39.28,12.22c.58,0,1.16.14,1.68.43l21.99,11.95c1.13.62,1.84,1.8,1.84,3.09v23.54c0,1.29-.71,2.47-1.84,3.09l-21.99,11.95c-.52.28-1.1.43-1.68.43s-1.16-.14-1.68-.43l-21.99-11.95c-1.13-.62-1.84-1.8-1.84-3.09v-23.54c0-1.29.71-2.47,1.84-3.09l21.99-11.95c.52-.28,1.1-.43,1.68-.43M39.28,9.65c-1.01,0-2.02.26-2.91.74l-21.99,11.95c-1.96,1.07-3.18,3.12-3.18,5.35v23.54c0,2.23,1.22,4.28,3.18,5.35l21.99,11.95c.89.48,1.9.74,2.91.74s2.02-.26,2.91-.74l21.99-11.95c1.96-1.07,3.18-3.12,3.18-5.35v-23.54c0-2.23-1.22-4.28-3.18-5.35l-21.99-11.95c-.89-.48-1.9-.74-2.91-.74h0Z"/>
    </g>
    <g>
      <polygon class="st4" points="39.28 15.01 16.79 27.23 39.28 27.23 39.28 15.01"/>
      <polygon class="st2" points="61.77 27.23 39.28 15.01 39.28 27.23 61.77 27.23"/>
      <polygon class="st2" points="61.77 51.67 39.28 39.45 39.28 51.67 61.77 51.67"/>
      <polygon class="st5" points="39.28 39.45 16.79 51.67 39.28 51.67 39.28 39.45"/>
      <polygon class="st7" points="16.79 27.23 16.79 51.67 39.28 39.45 16.79 27.23"/>
      <polygon class="st7" points="39.28 39.45 61.77 51.67 61.77 27.23 39.28 39.45"/>
      <polygon class="st5" points="39.28 39.45 61.77 27.23 39.28 27.23 39.28 39.45"/>
      <polygon class="st2" points="39.28 27.23 16.79 27.23 39.28 39.45 39.28 27.23"/>
      <polygon class="st2" points="39.28 51.67 16.79 51.67 39.28 63.89 39.28 51.67"/>
      <polygon class="st4" points="39.28 63.89 61.77 51.67 39.28 51.67 39.28 63.89"/>
    </g>
    <g>
      <polygon class="st9" points="39.28 15.01 16.79 27.23 39.28 27.23 39.28 15.01"/>
      <polygon class="st8" points="61.77 27.23 39.28 15.01 39.28 27.23 61.77 27.23"/>
      <polygon class="st2" points="61.77 51.67 39.28 39.45 39.28 51.67 61.77 51.67"/>
      <polygon class="st5" points="39.28 39.45 16.79 51.67 39.28 51.67 39.28 39.45"/>
      <polygon class="st3" points="16.79 27.23 16.79 51.67 39.28 39.45 16.79 27.23"/>
      <polygon class="st7" points="39.28 39.45 61.77 51.67 61.77 27.23 39.28 39.45"/>
      <polygon class="st1" points="39.28 39.45 61.77 27.23 39.28 27.23 39.28 39.45"/>
      <polygon class="st8" points="39.28 27.23 16.79 27.23 39.28 39.45 39.28 27.23"/>
      <polygon class="st2" points="39.28 51.67 16.79 51.67 39.28 63.89 39.28 51.67"/>
      <polygon class="st0" points="39.28 63.89 61.77 51.67 39.28 51.67 39.28 63.89"/>
    </g>
    <g>
      <path class="st6" d="M22.79,30.49h11.34v3.13h-7.72v4.14h6.14v3.08h-6.14v4.25h7.72v3.33h-11.34v-17.93Z"/>
      <path class="st6" d="M56.05,33.72s-3.7-.42-5.23-.42c-1.94,0-2.86.7-2.86,1.88s.71,1.51,3.7,2.45c3.86,1.23,5.04,2.29,5.04,5.24,0,3.86-2.65,5.66-6.17,5.66-2.44,0-5.96-.81-5.96-.81l.37-2.79s3.52.47,5.38.47,2.78-.91,2.78-2.29c0-1.09-.63-1.59-3.2-2.32-4.02-1.15-5.54-2.5-5.54-5.34,0-3.68,2.47-5.27,6.09-5.27,2.39,0,4.92.53,4.92.53l.67,3.02h.01Z"/>
    </g>
    <g>
      <path class="st6" d="M74.49,46.91v-15.58h3.16v12.78h5.7v2.79h-8.86Z"/>
      <path class="st6" d="M94.05,41.16c0,3.53-1.28,6.02-5.27,6.02s-5.27-2.5-5.27-6.02,1.28-5.98,5.27-5.98,5.27,2.45,5.27,5.98ZM90.94,41.16c0-2.22-.46-3.37-2.15-3.37s-2.15,1.15-2.15,3.37.46,3.41,2.15,3.41,2.15-1.19,2.15-3.41Z"/>
      <path class="st6" d="M97.15,35.45l2.08,8.84h.53l2.08-8.84h3.02l-4.03,16.26h-3l1.26-4.81h-2.15l-2.82-11.45h3.03Z"/>
      <path class="st6" d="M114.76,43.79c.05.69.14.96.76,1.08l-.09,2.31c-1.53,0-2.31-.16-3.28-.8,0,0-1.65.8-3.37.8-2.4,0-3.55-1.33-3.55-3.76,0-2.59,1.49-3.32,4.01-3.5l2.45-.18v-.71c0-.99-.44-1.24-1.35-1.24-1.51,0-4.31.18-4.31.18l-.09-2.13s2.45-.66,4.65-.66c2.98,0,4.17,1.17,4.17,3.85,0,0,0,4.76,0,4.76ZM109.61,42.05c-.8.07-1.28.46-1.28,1.28s.3,1.35,1.12,1.35c.99,0,2.24-.37,2.24-.37v-2.45l-2.08.18h0Z"/>
      <path class="st6" d="M116.91,30.87h3.07v16.03h-3.07v-16.03Z"/>
      <path class="st6" d="M125.57,38.07v4.7c0,1.15,0,1.67.96,1.67.64,0,1.74-.05,1.74-.05l.14,2.45s-1.53.34-2.34.34c-2.77,0-3.57-1.05-3.57-4.35v-4.76h-1.35v-2.61h1.35v-3.18h3.07v3.18h2.82v2.61h-2.82Z"/>
      <path class="st6" d="M132.35,35.45l2.08,8.84h.53l2.08-8.84h3.02l-4.03,16.26h-3l1.26-4.81h-2.15l-2.82-11.45h3.03Z"/>
      <path class="st6" d="M150.45,31.33c2.54,0,4.08,1.05,4.08,3.37,0,2.11-.99,3.23-2.57,4.19,1.26.76,1.49,1.56,1.49,2.7,0,2.86-1.99,5.31-6.14,5.31h-5.86l3.6-15.58h5.41-.01ZM146.12,40.38l-.89,3.83h2.7c1.37,0,2.27-1.05,2.27-2.54,0-.89-.46-1.28-1.49-1.28h-2.59ZM147.59,34.03l-.87,3.71h2.36c1.24,0,2.22-.96,2.22-2.41,0-.85-.41-1.31-1.35-1.31h-2.36Z"/>
      <path class="st6" d="M164.77,39.53c0,3.53-1.95,7.65-5.8,7.65-2.84,0-4.51-1.26-4.51-4.33,0-3.53,2.13-7.65,5.8-7.65,2.84,0,4.51,1.26,4.51,4.33ZM161.72,39.49c0-1.05-.5-1.67-1.47-1.67-1.74,0-2.75,2.7-2.75,5.09,0,1.05.5,1.67,1.47,1.67,1.74,0,2.75-2.7,2.75-5.09Z"/>
      <path class="st6" d="M175.67,39.53c0,3.53-1.95,7.65-5.8,7.65-2.84,0-4.51-1.26-4.51-4.33,0-3.53,2.13-7.65,5.8-7.65,2.84,0,4.51,1.26,4.51,4.33ZM172.62,39.49c0-1.05-.5-1.67-1.47-1.67-1.74,0-2.75,2.7-2.75,5.09,0,1.05.5,1.67,1.47,1.67,1.74,0,2.75-2.7,2.75-5.09Z"/>
      <path class="st6" d="M185.2,38.18s-2.36-.37-3.85-.37c-.94,0-1.42.5-1.42,1.12,0,.5.39.69,1.63,1.08,1.95.62,3.05,1.05,3.05,2.82,0,2.98-2.18,4.35-5.15,4.35-2.22,0-3.96-.78-3.96-.78l.57-2.24s2.2.41,3.73.41c1.26,0,1.67-.48,1.67-1.12,0-.41-.46-.6-1.42-.87-1.95-.55-3.18-1.19-3.18-2.84,0-2.98,2.29-4.54,4.76-4.54s4.12.71,4.12.71l-.55,2.27Z"/>
      <path class="st6" d="M191.47,38.07l-1.05,4.58c-.09.39-.18.96-.18,1.28,0,.44.18.64.66.64.6,0,1.56-.11,1.56-.11l-.25,2.2s-1.21.53-2.57.53c-1.72,0-2.59-1.12-2.59-2.47,0-.71.16-1.58.34-2.34l1.01-4.31h-1.24l.69-2.61h1.17l.66-2.93h3.07l-.66,2.93h2.41l-.64,2.61h-2.39Z"/>
    </g>
  </g>
  <g>
    <path class="st6" d="M197.46,35.08v-2.82h-1.02v-.65h2.77v.65h-1.01v2.82h-.75,0Z"/>
    <path class="st6" d="M202.72,35.08v-2.51l-.98,2.51h-.32l-.98-2.51v2.51h-.74v-3.48h1.04l.84,2.17.84-2.17h1.04v3.48h-.75.01Z"/>
  </g>
</svg>