<?xml version="1.0" encoding="UTF-8"?>
<svg id="Layer_1" xmlns="http://www.w3.org/2000/svg" version="1.1" viewBox="0 0 215.04 78.91">
  <!-- Generator: Adobe Illustrator 29.7.1, SVG Export Plug-In . SVG Version: 2.1.1 Build 8)  -->
  <defs>
    <style>
      .st0 {
        fill: #006387;
      }

      .st1 {
        fill: #00567d;
      }

      .st2 {
        fill: #2e86a2;
      }

      .st3 {
        fill: #fff;
      }

      .st4 {
        fill: #649fb6;
      }

      .st5 {
        fill: #007696;
      }
    </style>
  </defs>
  <g>
    <g>
      <path class="st1" d="M52.65,68.27c-.8,0-1.59-.2-2.29-.58l-21.98-11.95c-1.55-.84-2.51-2.46-2.51-4.22v-23.53c0-1.76.96-3.38,2.51-4.22l21.98-11.95c.7-.38,1.49-.58,2.29-.58s1.59.2,2.29.58l21.98,11.95c1.55.84,2.51,2.46,2.51,4.22v23.53c0,1.76-.96,3.38-2.51,4.22l-21.98,11.95c-.7.38-1.49.58-2.29.58Z"/>
      <path class="st3" d="M52.65,12.53c.58,0,1.16.14,1.68.43l21.98,11.95c1.13.62,1.84,1.8,1.84,3.09v23.53c0,1.29-.7,2.47-1.84,3.09l-21.98,11.95c-.52.28-1.1.43-1.68.43s-1.16-.14-1.68-.43l-21.98-11.95c-1.13-.62-1.84-1.8-1.84-3.09v-23.53c0-1.29.7-2.47,1.84-3.09l21.98-11.95c.52-.28,1.1-.43,1.68-.43M52.65,9.96c-1.01,0-2.02.26-2.91.74l-21.98,11.95c-1.96,1.07-3.18,3.12-3.18,5.35v23.53c0,2.23,1.22,4.28,3.18,5.35l21.98,11.95c.89.48,1.89.74,2.91.74s2.02-.26,2.91-.74l21.98-11.95c1.96-1.07,3.18-3.12,3.18-5.35v-23.53c0-2.23-1.22-4.28-3.18-5.35l-21.98-11.95c-.89-.48-1.89-.74-2.91-.74h0Z"/>
    </g>
    <g>
      <polygon class="st1" points="52.65 15.32 30.16 27.54 52.65 27.54 52.65 15.32"/>
      <polygon class="st5" points="75.13 27.54 52.65 15.32 52.65 27.54 75.13 27.54"/>
      <polygon class="st5" points="75.13 51.98 52.65 39.76 52.65 51.98 75.13 51.98"/>
      <polygon class="st2" points="52.65 39.76 30.16 51.98 52.65 51.98 52.65 39.76"/>
      <polygon class="st4" points="30.16 27.54 30.16 51.98 52.65 39.76 30.16 27.54"/>
      <polygon class="st4" points="52.65 39.76 75.13 51.98 75.13 27.54 52.65 39.76"/>
      <polygon class="st2" points="52.65 39.76 75.13 27.54 52.65 27.54 52.65 39.76"/>
      <polygon class="st5" points="52.65 27.54 30.16 27.54 52.65 39.76 52.65 27.54"/>
      <polygon class="st5" points="52.65 51.98 30.16 51.98 52.65 64.19 52.65 51.98"/>
      <polygon class="st1" points="52.65 64.19 75.13 51.98 52.65 51.98 52.65 64.19"/>
    </g>
    <g>
      <polygon class="st0" points="52.65 15.32 30.16 27.54 52.65 27.54 52.65 15.32"/>
      <polygon class="st5" points="75.13 27.54 52.65 15.32 52.65 27.54 75.13 27.54"/>
      <polygon class="st5" points="75.13 51.98 52.65 39.76 52.65 51.98 75.13 51.98"/>
      <polygon class="st2" points="52.65 39.76 30.16 51.98 52.65 51.98 52.65 39.76"/>
      <polygon class="st4" points="30.16 27.54 30.16 51.98 52.65 39.76 30.16 27.54"/>
      <polygon class="st4" points="52.65 39.76 75.13 51.98 75.13 27.54 52.65 39.76"/>
      <polygon class="st2" points="52.65 39.76 75.13 27.54 52.65 27.54 52.65 39.76"/>
      <polygon class="st5" points="52.65 27.54 30.16 27.54 52.65 39.76 52.65 27.54"/>
      <polygon class="st5" points="52.65 51.98 30.16 51.98 52.65 64.19 52.65 51.98"/>
      <polygon class="st0" points="52.65 64.19 75.13 51.98 52.65 51.98 52.65 64.19"/>
    </g>
    <g>
      <path class="st3" d="M88.45,49.91v-20.52h4.2v16.84h7.57v3.68h-11.77Z"/>
      <path class="st3" d="M115.02,42.34c0,4.65-1.7,7.94-6.99,7.94s-6.99-3.29-6.99-7.94,1.7-7.88,6.99-7.88,6.99,3.23,6.99,7.88ZM110.89,42.34c0-2.93-.61-4.44-2.86-4.44s-2.86,1.51-2.86,4.44.61,4.5,2.86,4.5,2.86-1.57,2.86-4.5Z"/>
      <path class="st3" d="M119.74,34.82l2.77,11.65h.7l2.77-11.65h4.01l-5.35,21.43h-3.98l1.67-6.34h-2.86l-3.74-15.09h4.01Z"/>
      <path class="st3" d="M143.12,45.81c.06.91.18,1.27,1,1.42l-.12,3.05c-2.04,0-3.07-.21-4.35-1.06,0,0-2.19,1.06-4.47,1.06-3.19,0-4.71-1.75-4.71-4.95,0-3.41,1.98-4.38,5.32-4.62l3.25-.24v-.94c0-1.3-.58-1.63-1.79-1.63-2.01,0-5.72.24-5.72.24l-.12-2.81s3.25-.88,6.17-.88c3.95,0,5.53,1.54,5.53,5.07v6.28ZM136.28,43.51c-1.06.09-1.7.6-1.7,1.69s.4,1.78,1.49,1.78c1.31,0,2.98-.48,2.98-.48v-3.23l-2.77.24Z"/>
      <path class="st3" d="M146.58,28.78h4.07v21.13h-4.07v-21.13Z"/>
      <path class="st3" d="M158.69,38.26v6.19c0,1.51,0,2.2,1.28,2.2.85,0,2.31-.06,2.31-.06l.18,3.23s-2.04.45-3.1.45c-3.68,0-4.74-1.39-4.74-5.73v-6.28h-1.79v-3.44h1.79v-4.2h4.07v4.2h3.74v3.44h-3.74Z"/>
      <path class="st3" d="M167.69,34.82l2.77,11.65h.7l2.77-11.65h4.01l-5.35,21.43h-3.98l1.67-6.34h-2.86l-3.74-15.09h4.01Z"/>
    </g>
    <polygon class="st4" points="61.08 35.3 64.94 33.2 62.73 33.11 59.97 34.78 61.08 35.3"/>
    <g>
      <path class="st3" d="M36.16,30.8h11.34v3.13h-7.72v4.14h6.14v3.08h-6.14v4.25h7.72v3.33h-11.34v-17.92Z"/>
      <path class="st3" d="M69.41,34.03s-3.7-.42-5.23-.42c-1.94,0-2.86.7-2.86,1.88s.71,1.51,3.7,2.45c3.86,1.22,5.04,2.29,5.04,5.24,0,3.86-2.65,5.66-6.17,5.66-2.44,0-5.96-.81-5.96-.81l.37-2.79s3.52.47,5.38.47,2.78-.91,2.78-2.29c0-1.09-.63-1.59-3.2-2.32-4.02-1.15-5.54-2.5-5.54-5.34,0-3.67,2.47-5.26,6.09-5.26,2.39,0,4.92.53,4.92.53l.67,3.02Z"/>
    </g>
  </g>
  <g>
    <path class="st3" d="M179.7,33.22v-2.82h-1.02v-.65h2.77v.65h-1.01v2.82h-.75Z"/>
    <path class="st3" d="M184.96,33.22v-2.51l-.98,2.51h-.32l-.98-2.51v2.51h-.74v-3.48h1.04l.84,2.17.84-2.17h1.04v3.48h-.75Z"/>
  </g>
</svg>