<?xml version="1.0" encoding="UTF-8"?>
<svg id="Layer_1" xmlns="http://www.w3.org/2000/svg" version="1.1" viewBox="0 0 172.92 172.95">
  <!-- Generator: Adobe Illustrator 30.1.0, SVG Export Plug-In . SVG Version: 2.1.1 Build 136)  -->
  <defs>
    <style>
      .st0 {
        fill: #00567d;
      }

      .st1 {
        fill: #75bb43;
      }
    </style>
  </defs>
  <path class="st0" d="M135.88,149.35l-54.69-48.52c-.62-.55-1.52-.57-2.13-.05l-44.25,37c-.46.38-.64,1.1-.44,1.78.2.68.73,1.19,1.32,1.26l98.88,11.99c.89.11,1.7-.33,1.99-1.12.29-.78.03-1.71-.67-2.33Z"/>
  <path class="st1" d="M34.8,36.07l44.25,37.01c.62.52,1.51.49,2.13-.06l54.7-48.52c.7-.61.96-1.56.67-2.33-.3-.78-1.1-1.23-1.98-1.12l-98.89,11.98c-.6.08-1.12.58-1.32,1.27-.2.68-.02,1.39.44,1.77Z"/>
  <path class="st0" d="M32.76,135.3l34.68-47.26c.47-.65.48-1.59,0-2.23l-34.68-47.26c-.36-.5-.99-.64-1.54-.35-.55.29-.92.95-.92,1.64v94.16c0,.7.36,1.35.92,1.64.55.29,1.16.15,1.54-.34Z"/>
  <path class="st1" d="M138.67,26.96l-45.25,58.79c-.52.69-.52,1.66,0,2.35l45.25,58.79c.56.73,1.51,1.09,2.37.91.86-.19,1.44-.9,1.44-1.77V27.83c0-.87-.57-1.57-1.44-1.78-.86-.19-1.81.18-2.37.91Z"/>
</svg>